<?xml version="1.0" standalone="no"?>
<!DOCTYPE svg PUBLIC "-//W3C//DTD SVG 1.1//EN" "http://www.w3.org/Graphics/SVG/1.1/DTD/svg11.dtd" >
<svg xmlns="http://www.w3.org/2000/svg" xmlns:xlink="http://www.w3.org/1999/xlink" version="1.1">
<metadata>
Created by FontForge 20170731 at Mon Sep 21 19:44:17 1998
 By Aleksey,,,
Copyright (c) 1990 Adobe Systems Incorporated.  All Rights Reserved.Helvetica is a trademark of Linotype AG and/or its subsidiaries.
</metadata>
<defs>
<font id="HelveticaNeueLT-Condensed" horiz-adv-x="204" >
  <font-face 
    font-family="HelveticaNeue LT 57 Cn"
    font-weight="400"
    font-stretch="normal"
    units-per-em="1000"
    panose-1="0 0 4 0 0 0 0 0 0 0"
    ascent="800"
    descent="-200"
    x-height="536"
    cap-height="714"
    bbox="-164 -212 1000 932"
    underline-thickness="50"
    underline-position="-175"
    unicode-range="U+0001-E009"
  />
<missing-glyph horiz-adv-x="500" 
d="M63 0v806h375v-806h-375zM125 63h250v681h-250v-681z" />
    <glyph glyph-name=".notdef" horiz-adv-x="500" 
d="M63 0v806h375v-806h-375zM125 63h250v681h-250v-681z" />
    <glyph glyph-name=".null" horiz-adv-x="0" 
 />
    <glyph glyph-name="nonmarkingreturn" horiz-adv-x="240" 
 />
    <glyph glyph-name="breve" 
d="M-23 745h48q0 -27 24.5 -47t52.5 -20t52.5 20t24.5 47h48q0 -44 -25 -79q-33 -48 -100 -48t-100 48q-25 35 -25 79z" />
    <glyph glyph-name="caron" 
d="M241 752l-101 -142h-77l-100 142h78l61 -88l61 88h78z" />
    <glyph glyph-name="dotlessi" 
d="M60 0v536h84v-536h-84z" />
    <glyph glyph-name="dotaccent" 
d="M63 634v101h78v-101h-78z" />
    <glyph glyph-name="hungarumlaut" 
d="M-50 610l70 142h98l-108 -142h-60zM114 610l70 142h98l-108 -142h-60z" />
    <glyph glyph-name="ring" 
d="M3 690q0 41 29 70t70 29t70 -29t29 -70t-29 -70t-70 -29t-70 29t-29 70zM45 690q0 -23 17 -40t40 -17t40 17t17 40t-17 40t-40 17t-40 -17t-17 -40z" />
    <glyph glyph-name="ogonek" 
d="M127 6h53q-104 -75 -104 -130q0 -46 40 -46q24 0 66 21l18 -35q-34 -28 -102 -28q-94 0 -94 78q0 82 123 140z" />
    <glyph glyph-name="space" unicode=" " horiz-adv-x="240" 
 />
    <glyph glyph-name="exclam" unicode="!" horiz-adv-x="258" 
d="M99 186l-16 528h92l-16 -528h-60zM83 0v96h92v-96h-92z" />
    <glyph glyph-name="quotedbl" unicode="&#x22;" horiz-adv-x="407" 
d="M87 460v254h66v-254h-66zM254 460v254h66v-254h-66z" />
    <glyph glyph-name="numbersign" unicode="#" horiz-adv-x="480" 
d="M79 0l26 205h-82v66h90l19 154h-87v66h96l25 203h66l-25 -203h106l25 203h66l-25 -203h78v-66h-87l-19 -154h83v-66h-91l-26 -205h-66l26 205h-106l-26 -205h-66zM198 425l-19 -154h106l19 154h-106z" />
    <glyph glyph-name="dollar" unicode="$" horiz-adv-x="480" 
d="M259 306v-248q47 4 77.5 37t30.5 84q0 87 -108 127zM217 405v231q-95 -12 -95 -111q0 -83 95 -120zM217 708v58h42v-58q177 -9 180 -194h-88q0 113 -92 122v-245q105 -35 135 -57q65 -47 65 -141q0 -103 -64 -157q-52 -45 -136 -50v-94h-42v94q-108 4 -155 65
q-41 54 -41 167h88q0 -72 15 -104q23 -49 93 -56v262q-92 30 -127 58q-60 47 -60 138q0 68 33 116q48 69 154 76z" />
    <glyph glyph-name="percent" unicode="%" horiz-adv-x="759" 
d="M177 378q38 0 51 38q8 27 8 100t-8 100q-13 38 -51 38t-50 -38q-9 -27 -9 -100t9 -100q12 -38 50 -38zM186 -14l310 722h70l-310 -722h-70zM582 40q38 0 51 38q8 27 8 100t-8 100q-13 38 -51 38t-50 -38q-9 -27 -9 -100t9 -100q12 -38 50 -38zM177 324q-81 0 -110 59
q-21 41 -21 133t21 134q29 58 110 58t110 -58q21 -42 21 -134t-21 -133q-29 -59 -110 -59zM582 -14q-81 0 -110 59q-21 41 -21 133t21 134q29 58 110 58t110 -58q21 -42 21 -134t-21 -133q-29 -59 -110 -59z" />
    <glyph glyph-name="ampersand" unicode="&#x26;" horiz-adv-x="556" 
d="M238 453l19 18q33 31 44 47q20 28 20 60q0 31 -20 50.5t-52 19.5t-51.5 -19.5t-19.5 -50.5q0 -40 43 -101zM372 127l-157 227q-102 -61 -102 -163q0 -63 38 -98t93 -35q68 0 128 69zM275 400l141 -202q21 55 28 139h78q0 -41 -19 -110q-19 -73 -39 -98l92 -129h-95
l-48 67q-45 -43 -80 -60q-42 -21 -96 -21q-115 0 -171 75q-41 54 -41 123q0 112 97 185l52 39l-22 36q-52 85 -52 130q0 62 43 101t105 39q151 0 151 -136q0 -47 -31 -89q-20 -27 -67 -67z" />
    <glyph glyph-name="quotesingle" unicode="'" horiz-adv-x="240" 
d="M87 460v254h66v-254h-66z" />
    <glyph glyph-name="parenleft" unicode="(" horiz-adv-x="241" 
d="M189 714h48q-110 -181 -110 -449q0 -236 110 -449h-48q-146 200 -146 449t146 449z" />
    <glyph glyph-name="parenright" unicode=")" horiz-adv-x="241" 
d="M52 -184h-48q110 181 110 449q0 236 -110 449h48q146 -200 146 -449t-146 -449z" />
    <glyph glyph-name="asterisk" unicode="*" horiz-adv-x="352" 
d="M146 595v119h60v-119l107 41l22 -58l-113 -34l76 -94l-50 -37l-72 102l-72 -102l-50 37l76 94l-113 34l22 58z" />
    <glyph glyph-name="plus" unicode="+" horiz-adv-x="600" 
d="M267 0v220h-220v66h220v220h66v-220h220v-66h-220v-220h-66z" />
    <glyph glyph-name="comma" unicode="," horiz-adv-x="240" 
d="M74 0v106h92v-87q0 -70 -14 -103q-20 -48 -78 -64v47q44 21 44 77v24h-44z" />
    <glyph glyph-name="hyphenminus" unicode="-" horiz-adv-x="600" 
d="M47 220v66h506v-66h-506z" />
    <glyph glyph-name="period" unicode="." horiz-adv-x="240" 
d="M74 0v106h92v-106h-92z" />
    <glyph glyph-name="slash" unicode="/" horiz-adv-x="278" 
d="M-10 -14l232 742h66l-232 -742h-66z" />
    <glyph glyph-name="zero" unicode="0" horiz-adv-x="480" 
d="M240 -14q-128 0 -173 116q-29 76 -29 242q0 162 29 241q46 123 173 123q128 0 173 -117q29 -76 29 -247q0 -157 -29 -235q-47 -123 -173 -123zM126 344q0 -142 17 -202q24 -90 97 -90t98 90q16 60 16 202q0 147 -16 208q-25 90 -98 90t-97 -90q-17 -61 -17 -208z" />
    <glyph glyph-name="one" unicode="1" horiz-adv-x="480" 
d="M67 532v60q84 5 119 22q53 27 56 94h60v-708h-84v532h-151z" />
    <glyph glyph-name="two" unicode="2" horiz-adv-x="480" 
d="M438 78v-78h-396q0 161 153 290l58 49q48 41 69 74q25 42 25 96q0 52 -23 86q-27 41 -80 41q-112 0 -112 -153h-88q0 225 201 225q108 0 157 -71q33 -49 33 -118q0 -76 -33 -131q-26 -45 -91 -102l-100 -87q-63 -55 -77 -121h304z" />
    <glyph glyph-name="three" unicode="3" horiz-adv-x="480" 
d="M180 333v66h44q54 0 82 36q26 33 26 89q0 118 -92 118q-102 0 -102 -138h-88q0 95 45 147q48 57 143 57q100 0 147 -62q35 -48 35 -122q0 -56 -27 -96q-30 -43 -83 -56v-2q131 -26 131 -165q0 -100 -49 -158q-53 -61 -152 -61q-121 0 -172 87q-29 50 -29 110v9h88
q0 -56 26 -94q31 -46 87 -46q113 0 113 146q0 135 -128 135h-45z" />
    <glyph glyph-name="four" unicode="4" horiz-adv-x="480" 
d="M284 570l-178 -327h180v327h-2zM30 250l256 458h84v-465h80v-72h-80v-171h-84v171h-256v79z" />
    <glyph glyph-name="five" unicode="5" horiz-adv-x="480" 
d="M58 331l39 363h316v-78h-249l-28 -205l2 -2q44 53 124 53q81 0 129.5 -61.5t48.5 -171.5q0 -107 -47 -171q-54 -72 -159 -72q-110 0 -160 77q-34 51 -34 119h88q0 -45 19 -79q28 -51 89 -51q116 0 116 184q0 67 -26 109q-30 51 -92 51q-41 0 -73 -28q-27 -24 -27 -41z
" />
    <glyph glyph-name="six" unicode="6" horiz-adv-x="480" 
d="M429 538h-88q0 46 -24.5 75t-68.5 29q-75 0 -107 -93q-18 -53 -18 -120v-56h2q43 79 135 79q90 0 139 -62q46 -59 46 -162q0 -107 -50 -172q-54 -70 -150 -70q-130 0 -178 113q-32 74 -32 223q0 171 31 254q48 132 184 132q106 0 151 -73q28 -44 28 -97zM133 216
q0 -67 23 -110q29 -54 89 -54t89 54q23 43 23 110q0 164 -112 164t-112 -164z" />
    <glyph glyph-name="seven" unicode="7" horiz-adv-x="480" 
d="M38 616v78h404v-73q-84 -110 -139 -243q-81 -195 -97 -378h-98q20 163 87 325q66 159 167 291h-324z" />
    <glyph glyph-name="eight" unicode="8" horiz-adv-x="480" 
d="M37 195q0 141 125 182q-103 42 -103 151q0 85 48.5 132.5t132.5 47.5t132.5 -47.5t48.5 -132.5q0 -109 -103 -151q125 -41 125 -182q0 -84 -42 -139q-53 -70 -161 -70t-161 70q-42 55 -42 139zM240 642q-93 0 -93 -116t93 -116t93 116t-93 116zM125 198q0 -146 115 -146
t115 146t-115 146t-115 -146z" />
    <glyph glyph-name="nine" unicode="9" horiz-adv-x="480" 
d="M51 156h88q0 -45 24.5 -74.5t68.5 -29.5q75 0 107 93q18 54 18 120v56h-2q-43 -79 -135 -79q-90 0 -139 62q-46 59 -46 162q0 107 51 172q53 70 149 70q130 0 179 -113q31 -74 31 -223q0 -171 -31 -254q-48 -132 -184 -132q-106 0 -151 73q-28 44 -28 97zM347 478
q0 67 -23 110q-29 54 -89 54t-89 -54q-23 -43 -23 -110q0 -164 112 -164t112 164z" />
    <glyph glyph-name="colon" unicode=":" horiz-adv-x="240" 
d="M74 400v106h92v-106h-92zM74 0v106h92v-106h-92z" />
    <glyph glyph-name="semicolon" unicode=";" horiz-adv-x="240" 
d="M74 0v106h92v-87q0 -70 -14 -103q-20 -48 -78 -64v47q44 21 44 77v24h-44zM74 400v106h92v-106h-92z" />
    <glyph glyph-name="less" unicode="&#x3c;" horiz-adv-x="600" 
d="M47 223v60l506 231v-66l-428 -195l428 -195v-66z" />
    <glyph glyph-name="equal" unicode="=" horiz-adv-x="600" 
d="M47 322v66h506v-66h-506zM47 118v66h506v-66h-506z" />
    <glyph glyph-name="greater" unicode="&#x3e;" horiz-adv-x="600" 
d="M47 -8v66l428 195l-428 195v66l506 -231v-60z" />
    <glyph glyph-name="question" unicode="?" horiz-adv-x="444" 
d="M119 504h-84q0 95 45 153q49 65 141 65q88 0 138 -52.5t50 -135.5q0 -80 -50 -141q-35 -38 -78 -88q-32 -40 -32 -100v-19h-78q0 87 19 123q14 26 50 69q26 29 51 59q30 39 30 102q0 47 -24 78q-27 33 -73 33q-105 0 -105 -146zM165 0v96h92v-96h-92z" />
    <glyph glyph-name="at" unicode="@" horiz-adv-x="800" 
d="M240 293q0 -42 26.5 -69t67.5 -27q64 0 112 78q43 68 43 134q0 37 -21 67q-24 33 -60 33q-69 0 -120 -73q-48 -68 -48 -143zM524 487l22 63h56l-84 -282q-9 -30 -9 -45q0 -26 29 -26q67 0 117 66.5t50 151.5q0 112 -87.5 182.5t-217.5 70.5q-129 0 -217 -90t-88 -221
q0 -133 88 -222t217 -89q189 0 271 111h63q-99 -171 -334 -171q-154 0 -262.5 108.5t-108.5 262.5t108.5 262.5t262.5 108.5q162 0 266.5 -87t104.5 -222q0 -123 -85 -206q-77 -76 -173 -76q-63 0 -70 59h-2q-57 -59 -125 -59q-57 0 -98 42q-44 43 -44 108q0 109 64 193
q69 89 170 89q86 0 114 -82h2z" />
    <glyph glyph-name="A" unicode="A" horiz-adv-x="500" 
d="M-8 0l206 714h118l192 -714h-92l-51 196h-228l-53 -196h-92zM254 613l-99 -345h192l-91 345h-2z" />
    <glyph glyph-name="B" unicode="B" horiz-adv-x="519" 
d="M146 340v-268h120q125 0 125 132q0 70 -41 105q-37 31 -99 31h-105zM58 0v714h219q79 0 126 -39q57 -47 57 -144q0 -50 -28.5 -92.5t-75.5 -56.5v-2q127 -30 127 -176q0 -204 -231 -204h-194zM146 642v-236h101q121 0 121 119q0 117 -123 117h-99z" />
    <glyph glyph-name="C" unicode="C" horiz-adv-x="519" 
d="M403 245h92q-15 -259 -217 -259q-137 0 -191 118q-39 85 -39 253q0 165 41 253q55 118 189 118q205 0 211 -222h-92q-4 150 -119 150q-84 0 -115 -88q-23 -65 -23 -211t23 -211q31 -88 115 -88q72 0 102 61q20 42 23 126z" />
    <glyph glyph-name="D" unicode="D" horiz-adv-x="556" 
d="M155 642v-570h92q102 0 142 94q27 65 27 190q0 135 -24 195q-38 91 -145 91h-92zM67 0v714h191q152 0 208 -105q42 -77 42 -252q0 -357 -241 -357h-200z" />
    <glyph glyph-name="E" unicode="E" horiz-adv-x="463" 
d="M58 0v714h369v-78h-281v-224h265v-78h-265v-256h293v-78h-381z" />
    <glyph glyph-name="F" unicode="F" horiz-adv-x="444" 
d="M58 0v714h369v-78h-281v-224h265v-78h-265v-334h-88z" />
    <glyph glyph-name="G" unicode="G" horiz-adv-x="537" 
d="M489 516h-92q-7 140 -119 140q-84 0 -115 -88q-23 -65 -23 -211t23 -211q31 -88 115 -88q131 0 131 241h-141v72h221v-371h-66v97h-2q-15 -48 -55 -78q-43 -33 -99 -33q-127 0 -179 114q-40 86 -40 257q0 165 41 253q55 118 189 118q131 0 182 -92q27 -49 29 -120z" />
    <glyph glyph-name="H" unicode="H" horiz-adv-x="537" 
d="M479 714v-714h-88v344h-245v-344h-88v714h88v-292h245v292h88z" />
    <glyph glyph-name="I" unicode="I" 
d="M58 0v714h88v-714h-88z" />
    <glyph glyph-name="J" unicode="J" horiz-adv-x="426" 
d="M368 714v-509q0 -106 -34 -157q-42 -62 -145 -62q-84 0 -128 49q-39 44 -39 114v59h84v-52q0 -98 82 -98q56 0 76 38q16 31 16 112v506h88z" />
    <glyph glyph-name="K" unicode="K" horiz-adv-x="500" 
d="M58 0v714h88v-346h2l247 346h98l-216 -298l234 -416h-98l-193 344l-74 -101v-243h-88z" />
    <glyph glyph-name="L" unicode="L" horiz-adv-x="444" 
d="M58 0v714h88v-636h290v-78h-378z" />
    <glyph glyph-name="M" unicode="M" horiz-adv-x="704" 
d="M60 0v714h148l143 -566h2l143 566h148v-714h-88v624h-2l-158 -624h-88l-158 624h-2v-624h-88z" />
    <glyph glyph-name="N" unicode="N" horiz-adv-x="556" 
d="M58 0v714h114l236 -596h2v596h88v-714h-121l-229 578h-2v-578h-88z" />
    <glyph glyph-name="O" unicode="O" horiz-adv-x="556" 
d="M278 728q134 0 189 -118q41 -88 41 -253t-41 -253q-55 -118 -189 -118t-189 118q-41 88 -41 253t41 253q55 118 189 118zM278 656q-84 0 -115 -88q-23 -65 -23 -211t23 -211q31 -88 115 -88t115 88q23 65 23 211t-23 211q-31 88 -115 88z" />
    <glyph glyph-name="P" unicode="P" horiz-adv-x="481" 
d="M58 0v714h182q86 0 134 -26q87 -47 87 -179q0 -98 -56.5 -152.5t-149.5 -54.5h-109v-302h-88zM146 642v-268h105q51 0 84.5 35.5t33.5 103.5q0 129 -124 129h-99z" />
    <glyph glyph-name="Q" unicode="Q" horiz-adv-x="556" 
d="M473 -43l-72 65q-49 -36 -123 -36q-134 0 -189 118q-41 88 -41 253t41 253q55 118 189 118t189 -118q41 -88 41 -253q0 -193 -58 -282l72 -66zM343 75l-69 62l49 54l66 -60q27 66 27 226q0 146 -23 211q-31 88 -115 88t-115 -88q-23 -65 -23 -211t23 -211q31 -88 115 -88
q39 0 65 17z" />
    <glyph glyph-name="R" unicode="R" horiz-adv-x="519" 
d="M58 0v714h231q85 0 134 -47.5t49 -131.5q0 -153 -110 -180v-2q45 -5 72 -38.5t29 -80.5l6 -122q4 -91 38 -112h-106q-19 19 -24 103l-6 111q-4 65 -38 89q-22 15 -68 15h-119v-318h-88zM146 642v-252h87q63 0 93 17q54 31 54 121q0 53 -34 83.5t-95 30.5h-105z" />
    <glyph glyph-name="S" unicode="S" horiz-adv-x="500" 
d="M449 529h-88q0 127 -111 127q-118 0 -118 -116q0 -82 87 -120q81 -31 163 -62q87 -50 87 -160q0 -113 -73 -168q-59 -44 -149 -44q-120 0 -171 62q-45 55 -45 176h88q0 -79 19 -113q29 -53 115 -53q53 0 88.5 35t35.5 91q0 82 -87 122q-81 31 -163 63q-87 51 -87 162
q0 73 37 123q53 74 172 74q197 0 200 -199z" />
    <glyph glyph-name="T" unicode="T" horiz-adv-x="463" 
d="M275 636v-636h-88v636h-179v78h447v-78h-180z" />
    <glyph glyph-name="U" unicode="U" horiz-adv-x="519" 
d="M50 212v502h88v-502q0 -80 28.5 -117t92.5 -37q68 0 96 40q26 35 26 114v502h88v-502q0 -105 -52 -164q-55 -62 -158 -62q-209 0 -209 226z" />
    <glyph glyph-name="V" unicode="V" horiz-adv-x="462" 
d="M172 0l-174 714h92l140 -613h2l140 613h92l-180 -714h-112z" />
    <glyph glyph-name="W" unicode="W" horiz-adv-x="722" 
d="M150 0l-142 714h88l109 -584h2l101 584h106l101 -584h2l109 584h88l-147 -714h-107l-98 578h-2l-103 -578h-107z" />
    <glyph glyph-name="X" unicode="X" horiz-adv-x="481" 
d="M192 363l-176 351h98l130 -267l131 267h92l-178 -351l190 -363h-98l-142 286l-145 -286h-92z" />
    <glyph glyph-name="Y" unicode="Y" horiz-adv-x="462" 
d="M187 280l-189 434h97l136 -334l141 334h92l-189 -434v-280h-88v280z" />
    <glyph glyph-name="Z" unicode="Z" horiz-adv-x="463" 
d="M23 0v74l321 562h-303v78h395v-81l-321 -555h325v-78h-417z" />
    <glyph glyph-name="bracketleft" unicode="[" horiz-adv-x="259" 
d="M78 -184v898h179v-66h-101v-766h101v-66h-179z" />
    <glyph glyph-name="backslash" unicode="\" horiz-adv-x="278" 
d="M222 -14l-232 742h66l232 -742h-66z" />
    <glyph glyph-name="bracketright" unicode="]" horiz-adv-x="259" 
d="M181 714v-898h-179v66h101v766h-101v66h179z" />
    <glyph glyph-name="asciicircum" unicode="^" horiz-adv-x="600" 
d="M47 261l229 433h48l229 -433h-66l-187 361l-187 -361h-66z" />
    <glyph glyph-name="underscore" unicode="_" horiz-adv-x="500" 
d="M0 -125v50h500v-50h-500z" />
    <glyph glyph-name="grave" unicode="`" 
d="M-16 752h98l70 -142h-60z" />
    <glyph glyph-name="a" unicode="a" horiz-adv-x="444" 
d="M126 374h-84q0 92 42.5 134t137.5 42q106 0 143 -56q20 -31 20 -98v-299q0 -43 26 -43q13 0 20 5v-60q-30 -5 -49 -5q-34 0 -48 9q-25 14 -28 60h-2q-20 -35 -55.5 -56t-73.5 -21q-146 0 -146 156q0 118 101 148l113 34q42 13 53 31q8 12 8 50q0 79 -86 79
q-92 0 -92 -105v-5zM301 154v138q-18 -19 -69 -35q-60 -19 -74 -28q-41 -25 -41 -85q0 -92 76 -92q42 0 75 30.5t33 71.5z" />
    <glyph glyph-name="b" unicode="b" horiz-adv-x="463" 
d="M134 268q0 -210 108 -210q98 0 98 210q0 104 -20 153q-23 57 -78 57q-108 0 -108 -210zM55 0v714h84v-239h2q14 34 48.5 54.5t75.5 20.5q163 0 163 -282q0 -123 -41 -198q-46 -84 -134 -84q-42 0 -74.5 24t-41.5 56h-2v-66h-80z" />
    <glyph glyph-name="c" unicode="c" horiz-adv-x="426" 
d="M394 373h-84q0 45 -18 75q-23 36 -67 36q-48 0 -72 -37q-33 -52 -33 -185q0 -87 13 -131q23 -79 89 -79q88 0 88 134h84q0 -77 -38 -132q-47 -68 -138 -68q-97 0 -142 69q-44 66 -44 206q0 289 191 289q96 0 140 -65q31 -46 31 -112z" />
    <glyph glyph-name="d" unicode="d" horiz-adv-x="463" 
d="M123 268q0 -104 20 -153q23 -57 78 -57q64 0 89 59q19 47 19 151q0 210 -108 210q-55 0 -78 -57q-20 -49 -20 -153zM408 714v-714h-80v66h-2q-9 -32 -40 -55q-34 -25 -76 -25q-175 0 -175 282t169 282q37 0 70.5 -20.5t47.5 -54.5h2v239h84z" />
    <glyph glyph-name="e" unicode="e" horiz-adv-x="444" 
d="M128 324h191v29q0 131 -93 131q-51 0 -77 -47q-21 -39 -21 -93v-20zM407 258h-282q0 -92 13 -134q22 -72 90 -72q52 0 76 47q15 32 15 77h84q0 -63 -35 -116q-49 -74 -145 -74q-97 0 -142 69q-44 66 -44 206q0 289 191 289q109 0 151 -86q28 -58 28 -172v-34z" />
    <glyph glyph-name="f" unicode="f" horiz-adv-x="259" 
d="M80 0v470h-78v66h78v63q0 123 116 123h61v-72h-39q-54 0 -54 -51v-63h92v-66h-92v-470h-84z" />
    <glyph glyph-name="g" unicode="g" horiz-adv-x="463" 
d="M221 478q-55 0 -78 -57q-20 -49 -20 -153q0 -196 97 -196q63 0 89 57q20 45 20 139q0 210 -108 210zM408 536v-502q0 -218 -182 -218q-162 0 -176 134h84q6 -68 86 -68q70 0 93 46q11 23 11 74v70h-2q-13 -33 -46.5 -52.5t-74.5 -19.5q-101 0 -141 107q-25 65 -25 161
q0 282 175 282q42 0 76 -25q31 -24 40 -57h2v68h80z" />
    <glyph glyph-name="h" unicode="h" horiz-adv-x="463" 
d="M55 0v714h84v-239h2q16 32 54 53.5t75 21.5q90 0 121 -61q17 -35 17 -109v-380h-84v370q0 108 -79 108q-40 0 -70 -25q-36 -30 -36 -83v-370h-84z" />
    <glyph glyph-name="i" unicode="i" 
d="M60 0v536h84v-536h-84zM60 618v96h84v-96h-84z" />
    <glyph glyph-name="j" unicode="j" 
d="M144 536v-588q0 -132 -128 -132l-39 3v72q30 -3 31 -3q35 0 46 26q6 16 6 64v558h84zM144 714v-96h-84v96h84z" />
    <glyph glyph-name="k" unicode="k" horiz-adv-x="444" 
d="M264 334l191 -334h-98l-149 265l-69 -84v-181h-84v714h84v-425h2l188 247h98z" />
    <glyph glyph-name="l" unicode="l" 
d="M60 0v714h84v-714h-84z" />
    <glyph glyph-name="m" unicode="m" horiz-adv-x="722" 
d="M63 0v536h80v-63h2q16 36 54 57q35 20 76 20q92 0 116 -85q19 37 53 61t74 24q92 0 123 -61q18 -35 18 -109v-380h-84v370q0 108 -72 108q-37 0 -65 -22q-35 -30 -35 -86v-370h-84v370q0 108 -72 108q-37 0 -65 -22q-35 -30 -35 -86v-370h-84z" />
    <glyph glyph-name="n" unicode="n" horiz-adv-x="463" 
d="M55 0v536h80v-63h2q16 36 54 57q35 20 76 20q92 0 123 -61q18 -35 18 -109v-380h-84v370q0 108 -79 108q-40 0 -70 -25q-36 -30 -36 -83v-370h-84z" />
    <glyph glyph-name="o" unicode="o" horiz-adv-x="444" 
d="M29 268q0 282 193 282t193 -282t-193 -282t-193 282zM220 52q107 0 107 216q0 101 -20 152q-25 64 -87 64q-103 0 -103 -216t103 -216z" />
    <glyph glyph-name="p" unicode="p" horiz-adv-x="463" 
d="M134 268q0 -210 108 -210q55 0 78 58q20 51 20 162q0 200 -98 200q-64 0 -89 -59q-19 -47 -19 -151zM55 -176v712h80v-66h2q9 32 41.5 56t74.5 24q175 0 175 -272q0 -114 -35 -192q-46 -100 -140 -100q-36 0 -67 20.5t-45 54.5h-2v-237h-84z" />
    <glyph glyph-name="q" unicode="q" horiz-adv-x="463" 
d="M329 268q0 104 -19 151q-25 59 -89 59q-98 0 -98 -200q0 -111 20 -162q23 -58 78 -58q108 0 108 210zM324 -176v237h-2q-14 -34 -45 -54.5t-67 -20.5q-175 0 -175 292q0 272 175 272q42 0 76 -25q31 -23 40 -55h2v66h80v-712h-84z" />
    <glyph glyph-name="r" unicode="r" horiz-adv-x="296" 
d="M55 0v536h84v-80h2q44 94 116 94q25 0 37 -6v-82q-32 4 -45 4q-38 0 -71 -30q-39 -37 -39 -97v-339h-84z" />
    <glyph glyph-name="s" unicode="s" horiz-adv-x="407" 
d="M369 379h-84q0 54 -17.5 79.5t-61.5 25.5q-87 0 -87 -82q0 -41 41 -64q13 -7 91 -33q65 -22 90 -44q41 -36 41 -107q0 -82 -47.5 -125t-125.5 -43q-184 0 -184 190h84q0 -124 100 -124q31 0 55 16q34 23 34 73q0 47 -41 73q-18 12 -90 36q-67 23 -90 43q-42 35 -42 109
q0 72 51 112q46 36 120 36q102 0 140 -62q22 -37 23 -109z" />
    <glyph glyph-name="t" unicode="t" horiz-adv-x="259" 
d="M80 536v156h84v-156h93v-66h-93v-344q0 -33 11.5 -46.5t43.5 -13.5q10 0 37 3v-69q-33 -6 -68 -6q-62 0 -87 27q-21 23 -21 79v370h-78v66h78z" />
    <glyph glyph-name="u" unicode="u" horiz-adv-x="463" 
d="M408 536v-536h-80v63h-2q-16 -36 -52.5 -56.5t-77.5 -20.5q-92 0 -123 61q-18 35 -18 109v380h84v-370q0 -108 79 -108q40 0 70 25q36 30 36 83v370h84z" />
    <glyph glyph-name="v" unicode="v" horiz-adv-x="406" 
d="M155 0l-145 536h92l100 -430h2l100 430h92l-145 -536h-96z" />
    <glyph glyph-name="w" unicode="w" horiz-adv-x="648" 
d="M135 0l-125 536h88l86 -438h2l91 438h99l89 -438h2l83 438h88l-127 -536h-92l-94 438h-2l-90 -438h-98z" />
    <glyph glyph-name="x" unicode="x" horiz-adv-x="406" 
d="M153 279l-137 257h92l97 -191l98 191h92l-140 -257l145 -279h-92l-107 212l-103 -212h-92z" />
    <glyph glyph-name="y" unicode="y" horiz-adv-x="406" 
d="M168 -11l-158 547h92l106 -430h2l94 430h92l-155 -572q-19 -70 -41 -98q-34 -42 -102 -42q-19 0 -61 3v66q18 -3 49 -3q48 0 66 52z" />
    <glyph glyph-name="z" unicode="z" horiz-adv-x="389" 
d="M39 464v72h323v-70l-240 -394h238v-72h-333v66l243 398h-231z" />
    <glyph glyph-name="braceleft" unicode="{" horiz-adv-x="259" 
d="M2 235v60q34 0 55 30t21 81v178q0 130 108 130h71v-66h-51q-32 0 -43 -27q-7 -17 -7 -55v-172q0 -63 -36 -99q-24 -25 -52 -29v-2q28 -4 52 -29q36 -36 36 -99v-172q0 -38 7 -55q11 -27 43 -27h51v-66h-71q-108 0 -108 130v178q0 51 -21 81t-55 30z" />
    <glyph glyph-name="bar" unicode="|" horiz-adv-x="222" 
d="M78 -14v742h66v-742h-66z" />
    <glyph glyph-name="braceright" unicode="}" horiz-adv-x="259" 
d="M257 295v-60q-34 0 -55 -30t-21 -81v-178q0 -130 -108 -130h-71v66h51q32 0 43 27q7 17 7 55v172q0 63 36 99q24 25 52 29v2q-28 4 -52 29q-36 36 -36 99v172q0 38 -7 55q-11 27 -43 27h-51v66h71q108 0 108 -130v-178q0 -51 21 -81t55 -30z" />
    <glyph glyph-name="asciitilde" unicode="~" horiz-adv-x="600" 
d="M98 185v0l-42 46q66 93 136 93q51 0 104 -29l52 -30q32 -17 55 -17q50 0 99 73l42 -45q-66 -94 -136 -94q-51 0 -104 29l-52 30q-32 17 -55 17q-50 0 -99 -73z" />
    <glyph glyph-name="uni20AC" horiz-adv-x="480" 
d="M465 661q-37 24 -72.5 37t-80.5 13q-60 0 -101.5 -21t-68 -56.5t-40.5 -82.5t-19 -100h-44l-21 -60h62l-1 -55h-39l-21 -60h61q3 -56 13.5 -108t35 -93t67 -65t108.5 -24q43 0 79 10t72 33v87q-32 -26 -66.5 -44t-77.5 -18q-45 0 -72 21.5t-41.5 54.5t-19.5 72t-6 74h173
l21 60h-195l1 55h210l21 60h-227q3 34 9.5 68t21.5 61.5t41 44.5t68 17q36 0 63 -14.5t54 -37.5z" />
    <glyph glyph-name="uni20AC" unicode="&#x20ac;" horiz-adv-x="480" 
d="M465 661q-37 24 -72.5 37t-80.5 13q-60 0 -101.5 -21t-68 -56.5t-40.5 -82.5t-19 -100h-44l-21 -60h62l-1 -55h-39l-21 -60h61q3 -56 13.5 -108t35 -93t67 -65t108.5 -24q43 0 79 10t72 33v87q-32 -26 -66.5 -44t-77.5 -18q-45 0 -72 21.5t-41.5 54.5t-19.5 72t-6 74h173
l21 60h-195l1 55h210l21 60h-227q3 34 9.5 68t21.5 61.5t41 44.5t68 17q36 0 63 -14.5t54 -37.5z" />
    <glyph glyph-name="nonbreakingspace" unicode="&#xa0;" horiz-adv-x="240" 
 />
    <glyph glyph-name="exclamdown" unicode="&#xa1;" horiz-adv-x="258" 
d="M159 352l16 -528h-92l16 528h60zM175 538v-96h-92v96h92z" />
    <glyph glyph-name="cent" unicode="&#xa2;" horiz-adv-x="480" 
d="M227 52v432q-80 -19 -80 -222q0 -192 80 -210zM227 -99v85q-168 10 -168 275q0 273 168 289v70h42v-70q85 -5 124 -69q28 -45 28 -108h-84q0 99 -68 111v-432q68 16 68 134h84q0 -73 -33 -126q-40 -66 -119 -74v-85h-42z" />
    <glyph glyph-name="sterling" unicode="&#xa3;" horiz-adv-x="480" 
d="M447 505h-84q0 137 -114 137q-59 0 -89 -35q-24 -29 -24 -70q0 -45 56 -155h164v-60h-142q17 -34 17 -68q0 -53 -41 -104q-26 -33 -86 -83l2 -2q56 28 85 28q24 0 62.5 -14.5t63.5 -14.5q38 0 107 39l37 -67q-71 -50 -138 -50q-35 0 -88.5 20.5t-81.5 20.5q-26 0 -49 -11
l-47 -22l-38 65q60 49 84 80q40 50 40 106q0 46 -21 77h-95v60h70l-16 31q-33 64 -33 115q0 84 59 133q55 47 142 47q91 0 143 -49q55 -53 55 -154z" />
    <glyph glyph-name="currency" unicode="&#xa4;" horiz-adv-x="480" 
d="M92 347q0 -65 43 -109.5t105 -44.5t105 44.5t43 109.5t-43 109.5t-105 44.5t-105 -44.5t-43 -109.5zM18 167l47 47q-45 59 -45 133q0 73 45 132l-47 47l43 43l47 -47q57 45 132 45q74 0 132 -45l47 47l43 -43l-47 -47q45 -57 45 -132t-46 -132l48 -48l-42 -42l-48 48
q-57 -46 -132 -46q-74 0 -133 45l-47 -47z" />
    <glyph glyph-name="yen" unicode="&#xa5;" horiz-adv-x="480" 
d="M200 0v153h-147v60h147v60l-10 22h-137v60h110l-154 339h97l136 -324l141 324h88l-150 -339h110v-60h-137l-10 -22v-60h147v-60h-147v-153h-84z" />
    <glyph glyph-name="brokenbar" unicode="&#xa6;" horiz-adv-x="222" 
d="M78 -14v294h66v-294h-66zM78 434v294h66v-294h-66z" />
    <glyph glyph-name="section" unicode="&#xa7;" horiz-adv-x="482" 
d="M413 578h-88q0 39 -25 61.5t-63 22.5q-41 0 -65 -25q-20 -22 -20 -50q0 -47 80 -95l100 -60q59 -35 85 -65q35 -41 35 -95q0 -86 -89 -147q58 -37 58 -124q0 -72 -53 -115q-49 -40 -121 -40q-100 0 -147 62q-36 46 -36 112h84q0 -48 25.5 -78t73.5 -30t70 32q16 23 16 53
q0 56 -83 107l-113 70q-107 66 -107 146q0 50 28 85q20 25 70 57q-64 41 -64 120q0 69 54 109q49 37 119 37q161 0 176 -150zM184 245l66 -42l60 -41q58 35 58 95q0 54 -77 102l-110 68q-67 -50 -67 -96q0 -41 70 -86z" />
    <glyph glyph-name="dieresis" unicode="&#xa8;" 
d="M-18 634v101h78v-101h-78zM144 634v101h78v-101h-78z" />
    <glyph glyph-name="copyright" unicode="&#xa9;" horiz-adv-x="800" 
d="M543 279h60q-10 -74 -67 -116q-53 -39 -130 -39q-101 0 -160 63.5t-59 166.5t59 166.5t160 63.5q78 0 130 -38q57 -42 67 -117h-60q-9 41 -46 68t-91 27q-69 0 -111 -49t-42 -121t42 -121t111 -49q54 0 91 27t46 68zM29 357q0 154 108.5 262.5t262.5 108.5t262.5 -108.5
t108.5 -262.5t-108.5 -262.5t-262.5 -108.5t-262.5 108.5t-108.5 262.5zM400 46q127 0 216 91t89 220t-89 220t-216 91t-216 -91t-89 -220t89 -220t216 -91z" />
    <glyph glyph-name="ordfeminine" unicode="&#xaa;" horiz-adv-x="289" 
d="M251 612v-176q0 -27 17 -27q7 0 13 3v-42q-12 -3 -38 -3q-49 0 -50 46h-2q-25 -46 -88 -46q-45 0 -70 25.5t-25 67.5q0 72 72 92l73 20q26 7 33 18q5 7 5 27q0 43 -54 43q-59 0 -59 -58v-4h-60q0 59 29 84.5t98 25.5t93 -35q13 -20 13 -61zM191 470v77q-11 -11 -45 -21
q-38 -10 -48 -17q-24 -16 -24 -45q0 -49 46 -49q27 0 49 17.5t22 37.5z" />
    <glyph glyph-name="guillemotleft" unicode="&#xab;" horiz-adv-x="389" 
d="M198 245v78l142 143v-88l-94 -94l94 -94v-88zM49 245v78l142 143v-88l-94 -94l94 -94v-88z" />
    <glyph glyph-name="logicalnot" unicode="&#xac;" horiz-adv-x="600" 
d="M487 106v216h-440v66h506v-282h-66z" />
    <glyph glyph-name="uni00AD" unicode="&#xad;" horiz-adv-x="600" 
d="M47 220v66h506v-66h-506z" />
    <glyph glyph-name="registered" unicode="&#xae;" horiz-adv-x="800" 
d="M252 138v434h168q148 0 148 -127q0 -108 -117 -120l124 -187h-66l-120 182h-71v-182h-66zM318 380h71q56 0 79 10q34 14 34 58q0 64 -94 64h-90v-132zM29 357q0 154 108.5 262.5t262.5 108.5t262.5 -108.5t108.5 -262.5t-108.5 -262.5t-262.5 -108.5t-262.5 108.5
t-108.5 262.5zM400 46q127 0 216 91t89 220t-89 220t-216 91t-216 -91t-89 -220t89 -220t216 -91z" />
    <glyph glyph-name="macron" unicode="&#xaf;" 
d="M-30 655v54h264v-54h-264z" />
    <glyph glyph-name="degree" unicode="&#xb0;" horiz-adv-x="400" 
d="M51 559q0 65 42.5 107t106.5 42q65 0 107 -42t42 -107q0 -64 -42 -106.5t-107 -42.5q-64 0 -106.5 42.5t-42.5 106.5zM105 559q0 -39 28 -67t67 -28t67 28t28 67t-28 67t-67 28t-67 -28t-28 -67z" />
    <glyph glyph-name="plusminus" unicode="&#xb1;" horiz-adv-x="600" 
d="M47 295v66h220v145h66v-145h220v-66h-220v-145h-66v145h-220zM47 0v66h506v-66h-506z" />
    <glyph glyph-name="twosuperior" unicode="&#xb2;" horiz-adv-x="312" 
d="M282 280h-261q0 94 100 175l37 30q62 50 62 103q0 60 -66 60q-62 0 -62 -76h-72q0 136 139 136q60 0 95 -28q38 -31 38 -86q0 -46 -21 -80q-17 -26 -60 -61l-62 -50q-35 -28 -47 -63h180v-60z" />
    <glyph glyph-name="threesuperior" unicode="&#xb3;" horiz-adv-x="312" 
d="M116 474v54h24q72 0 72 69q0 57 -55 57q-62 0 -62 -69h-72q0 123 136 123q125 0 125 -111q0 -33 -22 -58.5t-62 -33.5v-2q96 -15 96 -99q0 -131 -136 -131q-85 0 -122 52q-22 31 -22 66v5h72q0 -27 16 -46q19 -23 54 -23q25 0 43 15q23 20 23 58q0 74 -80 74h-28z" />
    <glyph glyph-name="acute" unicode="&#xb4;" 
d="M52 610l70 142h98l-108 -142h-60z" />
    <glyph glyph-name="mu" unicode="&#xb5;" horiz-adv-x="463" 
d="M408 536v-536h-80v63h-2q-16 -36 -52.5 -56.5t-77.5 -20.5q-39 0 -57 14v-176h-84v712h84v-370q0 -108 79 -108q40 0 70 25q36 30 36 83v370h84z" />
    <glyph glyph-name="paragraph" unicode="&#xb6;" horiz-adv-x="556" 
d="M411 -140v800h-100v-800h-66v462q-91 0 -150 53.5t-59 132.5q0 96 66 152q63 54 170 54h205v-854h-66z" />
    <glyph glyph-name="periodcentered" unicode="&#xb7;" horiz-adv-x="240" 
d="M64 327q0 23 16.5 39.5t39.5 16.5t39.5 -16.5t16.5 -39.5t-16.5 -39.5t-39.5 -16.5t-39.5 16.5t-16.5 39.5z" />
    <glyph glyph-name="periodcentered" unicode="&#x2219;" horiz-adv-x="240" 
d="M64 327q0 23 16.5 39.5t39.5 16.5t39.5 -16.5t16.5 -39.5t-16.5 -39.5t-39.5 -16.5t-39.5 16.5t-16.5 39.5z" />
    <glyph glyph-name="cedilla" unicode="&#xb8;" 
d="M-1 -192l15 34q36 -12 64 -12q55 0 55 41q0 17 -14 27t-33 10q-29 0 -38 -7l-15 18l59 87h42l-41 -60l2 -2q14 6 30 6q30 0 53 -17q27 -21 27 -59q0 -37 -32 -61.5t-75 -24.5q-65 0 -99 20z" />
    <glyph glyph-name="onesuperior" unicode="&#xb9;" horiz-adv-x="312" 
d="M128 280v313h-96v48q52 0 77 11q35 15 36 56h49v-428h-66z" />
    <glyph glyph-name="ordmasculine" unicode="&#xba;" horiz-adv-x="289" 
d="M143 708q130 0 130 -169q0 -172 -130 -172q-127 0 -127 172q0 169 127 169zM143 415q64 0 64 124q0 121 -64 121q-61 0 -61 -121q0 -124 61 -124z" />
    <glyph glyph-name="guillemotright" unicode="&#xbb;" horiz-adv-x="389" 
d="M340 323v-78l-142 -143v88l94 94l-94 94v88zM191 323v-78l-142 -143v88l94 94l-94 94v88z" />
    <glyph glyph-name="onequarter" unicode="&#xbc;" horiz-adv-x="721" 
d="M454 153h112v185h-2zM400 159l160 269h72v-275h47v-54h-47v-99h-66v99h-166v60zM93 -31l434 756h60l-434 -756h-60zM32 593v48q52 0 77 11q35 15 36 56h49v-428h-66v313h-96z" />
    <glyph glyph-name="onehalf" unicode="&#xbd;" horiz-adv-x="721" 
d="M74 -31l434 756h60l-434 -756h-60zM30 593v48q52 0 77 11q35 15 36 56h49v-428h-66v313h-96zM681 0h-261q0 94 100 175l37 30q62 50 62 103q0 60 -66 60q-62 0 -62 -76h-72q0 136 139 136q60 0 95 -28q38 -31 38 -86q0 -46 -21 -80q-17 -26 -60 -61l-62 -50
q-35 -28 -47 -63h180v-60z" />
    <glyph glyph-name="threequarters" unicode="&#xbe;" horiz-adv-x="721" 
d="M476 153h112v185h-2zM422 159l160 269h72v-275h47v-54h-47v-99h-66v99h-166v60zM145 -31l434 756h60l-434 -756h-60zM120 474v54h24q72 0 72 69q0 57 -55 57q-62 0 -62 -69h-72q0 123 136 123q125 0 125 -111q0 -33 -22 -58.5t-62 -33.5v-2q96 -15 96 -99
q0 -131 -136 -131q-85 0 -122 52q-22 31 -22 66v5h72q0 -27 16 -46q19 -23 54 -23q25 0 43 15q23 20 23 58q0 74 -80 74h-28z" />
    <glyph glyph-name="questiondown" unicode="&#xbf;" horiz-adv-x="444" 
d="M325 34h84q0 -95 -45 -153q-49 -65 -141 -65q-88 0 -139 54q-49 51 -49 134q0 80 50 141q35 38 78 88q32 40 32 100v19h78q0 -87 -19 -123q-14 -26 -50 -69q-26 -29 -51 -59q-30 -39 -30 -102q0 -47 25.5 -79t71.5 -32q105 0 105 146zM279 538v-96h-92v96h92z" />
    <glyph glyph-name="Agrave" unicode="&#xc0;" horiz-adv-x="500" 
d="M-8 0l206 714h118l192 -714h-92l-51 196h-228l-53 -196h-92zM254 613l-99 -345h192l-91 345h-2zM139 895h98l70 -142h-60z" />
    <glyph glyph-name="Aacute" unicode="&#xc1;" horiz-adv-x="500" 
d="M-8 0l206 714h118l192 -714h-92l-51 196h-228l-53 -196h-92zM254 613l-99 -345h192l-91 345h-2zM207 753l70 142h98l-108 -142h-60z" />
    <glyph glyph-name="Acircumflex" unicode="&#xc2;" horiz-adv-x="500" 
d="M-8 0l206 714h118l192 -714h-92l-51 196h-228l-53 -196h-92zM254 613l-99 -345h192l-91 345h-2zM118 753l101 142h77l100 -142h-78l-61 88l-61 -88h-78z" />
    <glyph glyph-name="Atilde" unicode="&#xc3;" horiz-adv-x="500" 
d="M-8 0l206 714h118l192 -714h-92l-51 196h-228l-53 -196h-92zM254 613l-99 -345h192l-91 345h-2zM350 883v0h54q0 -42 -22 -74q-24 -37 -64 -37q-24 0 -65.5 19t-49.5 19q-32 0 -39 -45h-54q0 45 27 78t66 33q20 0 59.5 -19t52.5 -19q25 0 35 45z" />
    <glyph glyph-name="Adieresis" unicode="&#xc4;" horiz-adv-x="500" 
d="M-8 0l206 714h118l192 -714h-92l-51 196h-228l-53 -196h-92zM254 613l-99 -345h192l-91 345h-2zM137 777v101h78v-101h-78zM299 777v101h78v-101h-78z" />
    <glyph glyph-name="Aring" unicode="&#xc5;" horiz-adv-x="500" 
d="M-8 0l206 714h118l192 -714h-92l-51 196h-228l-53 -196h-92zM254 613l-99 -345h192l-91 345h-2zM158 833q0 41 29 70t70 29t70 -29t29 -70t-29 -70t-70 -29t-70 29t-29 70zM200 833q0 -23 17 -40t40 -17t40 17t17 40t-17 40t-40 17t-40 -17t-17 -40z" />
    <glyph glyph-name="AE" unicode="&#xc6;" horiz-adv-x="722" 
d="M322 642l-140 -374h150v374h-10zM-8 0l276 714h418v-78h-266v-224h250v-78h-250v-256h278v-78h-366v196h-175l-73 -196h-92z" />
    <glyph glyph-name="Ccedilla" unicode="&#xc7;" horiz-adv-x="519" 
d="M198 -81l46 69q-116 14 -162 129q-34 83 -34 240q0 165 41 253q55 118 189 118q205 0 211 -222h-92q-4 150 -119 150q-84 0 -115 -88q-23 -65 -23 -211t23 -211q31 -88 115 -88q72 0 102 61q20 42 23 126h92q-15 -255 -210 -259l-27 -40l2 -2q14 6 30 6q30 0 53 -17
q27 -21 27 -59q0 -37 -32 -61.5t-75 -24.5q-65 0 -99 20l15 34q36 -12 64 -12q55 0 55 41q0 17 -14 27t-33 10q-29 0 -38 -7z" />
    <glyph glyph-name="Egrave" unicode="&#xc8;" horiz-adv-x="463" 
d="M58 0v714h369v-78h-281v-224h265v-78h-265v-256h293v-78h-381zM126 895h98l70 -142h-60z" />
    <glyph glyph-name="Eacute" unicode="&#xc9;" horiz-adv-x="463" 
d="M58 0v714h369v-78h-281v-224h265v-78h-265v-256h293v-78h-381zM194 753l70 142h98l-108 -142h-60z" />
    <glyph glyph-name="Ecircumflex" unicode="&#xca;" horiz-adv-x="463" 
d="M58 0v714h369v-78h-281v-224h265v-78h-265v-256h293v-78h-381zM105 753l101 142h77l100 -142h-78l-61 88l-61 -88h-78z" />
    <glyph glyph-name="Edieresis" unicode="&#xcb;" horiz-adv-x="463" 
d="M58 0v714h369v-78h-281v-224h265v-78h-265v-256h293v-78h-381zM124 777v101h78v-101h-78zM286 777v101h78v-101h-78z" />
    <glyph glyph-name="Igrave" unicode="&#xcc;" 
d="M58 0v714h88v-714h-88zM-16 895h98l70 -142h-60z" />
    <glyph glyph-name="Iacute" unicode="&#xcd;" 
d="M58 0v714h88v-714h-88zM52 753l70 142h98l-108 -142h-60z" />
    <glyph glyph-name="Icircumflex" unicode="&#xce;" 
d="M58 0v714h88v-714h-88zM-37 753l101 142h77l100 -142h-78l-61 88l-61 -88h-78z" />
    <glyph glyph-name="Idieresis" unicode="&#xcf;" 
d="M58 0v714h88v-714h-88zM-18 777v101h78v-101h-78zM144 777v101h78v-101h-78z" />
    <glyph glyph-name="Eth" unicode="&#xd0;" horiz-adv-x="556" 
d="M67 0v340h-58v66h58v308h191q152 0 208 -105q42 -77 42 -252q0 -357 -241 -357h-200zM155 72h92q102 0 142 94q27 65 27 190q0 135 -24 195q-38 91 -145 91h-92v-236h134v-66h-134v-268z" />
    <glyph glyph-name="Ntilde" unicode="&#xd1;" horiz-adv-x="556" 
d="M58 0v714h114l236 -596h2v596h88v-714h-121l-229 578h-2v-578h-88zM371 883v0h54q0 -42 -22 -74q-24 -37 -64 -37q-24 0 -65.5 19t-49.5 19q-32 0 -39 -45h-54q0 45 27 78t66 33q20 0 59.5 -19t52.5 -19q25 0 35 45z" />
    <glyph glyph-name="Ograve" unicode="&#xd2;" horiz-adv-x="556" 
d="M278 728q134 0 189 -118q41 -88 41 -253t-41 -253q-55 -118 -189 -118t-189 118q-41 88 -41 253t41 253q55 118 189 118zM278 656q-84 0 -115 -88q-23 -65 -23 -211t23 -211q31 -88 115 -88t115 88q23 65 23 211t-23 211q-31 88 -115 88zM160 895h98l70 -142h-60z" />
    <glyph glyph-name="Oacute" unicode="&#xd3;" horiz-adv-x="556" 
d="M278 728q134 0 189 -118q41 -88 41 -253t-41 -253q-55 -118 -189 -118t-189 118q-41 88 -41 253t41 253q55 118 189 118zM278 656q-84 0 -115 -88q-23 -65 -23 -211t23 -211q31 -88 115 -88t115 88q23 65 23 211t-23 211q-31 88 -115 88zM228 753l70 142h98l-108 -142
h-60z" />
    <glyph glyph-name="Ocircumflex" unicode="&#xd4;" horiz-adv-x="556" 
d="M278 728q134 0 189 -118q41 -88 41 -253t-41 -253q-55 -118 -189 -118t-189 118q-41 88 -41 253t41 253q55 118 189 118zM278 656q-84 0 -115 -88q-23 -65 -23 -211t23 -211q31 -88 115 -88t115 88q23 65 23 211t-23 211q-31 88 -115 88zM139 753l101 142h77l100 -142
h-78l-61 88l-61 -88h-78z" />
    <glyph glyph-name="Otilde" unicode="&#xd5;" horiz-adv-x="556" 
d="M278 728q134 0 189 -118q41 -88 41 -253t-41 -253q-55 -118 -189 -118t-189 118q-41 88 -41 253t41 253q55 118 189 118zM278 656q-84 0 -115 -88q-23 -65 -23 -211t23 -211q31 -88 115 -88t115 88q23 65 23 211t-23 211q-31 88 -115 88zM371 883v0h54q0 -42 -22 -74
q-24 -37 -64 -37q-24 0 -65.5 19t-49.5 19q-32 0 -39 -45h-54q0 45 27 78t66 33q20 0 59.5 -19t52.5 -19q25 0 35 45z" />
    <glyph glyph-name="Odieresis" unicode="&#xd6;" horiz-adv-x="556" 
d="M278 728q134 0 189 -118q41 -88 41 -253t-41 -253q-55 -118 -189 -118t-189 118q-41 88 -41 253t41 253q55 118 189 118zM278 656q-84 0 -115 -88q-23 -65 -23 -211t23 -211q31 -88 115 -88t115 88q23 65 23 211t-23 211q-31 88 -115 88zM158 777v101h78v-101h-78z
M320 777v101h78v-101h-78z" />
    <glyph glyph-name="multiply" unicode="&#xd7;" horiz-adv-x="600" 
d="M480 30l-180 180l-181 -180l-42 42l181 181l-181 181l42 42l181 -180l180 180l43 -42l-181 -181l181 -181z" />
    <glyph glyph-name="Oslash" unicode="&#xd8;" horiz-adv-x="556" 
d="M161 153l197 473q-30 30 -80 30q-84 0 -115 -88q-23 -65 -23 -211q0 -137 21 -204zM395 562l-196 -474q30 -30 79 -30q84 0 115 88q23 65 23 211q0 140 -21 205zM88 -24l33 80q-73 86 -73 301q0 165 41 253q55 118 189 118q66 0 111 -28l24 59l54 -22l-32 -77
q73 -86 73 -303q0 -165 -41 -253q-55 -118 -189 -118q-65 0 -110 28l-26 -62z" />
    <glyph glyph-name="Ugrave" unicode="&#xd9;" horiz-adv-x="519" 
d="M50 212v502h88v-502q0 -80 28.5 -117t92.5 -37q68 0 96 40q26 35 26 114v502h88v-502q0 -105 -52 -164q-55 -62 -158 -62q-209 0 -209 226zM142 895h98l70 -142h-60z" />
    <glyph glyph-name="Uacute" unicode="&#xda;" horiz-adv-x="519" 
d="M50 212v502h88v-502q0 -80 28.5 -117t92.5 -37q68 0 96 40q26 35 26 114v502h88v-502q0 -105 -52 -164q-55 -62 -158 -62q-209 0 -209 226zM210 753l70 142h98l-108 -142h-60z" />
    <glyph glyph-name="Ucircumflex" unicode="&#xdb;" horiz-adv-x="519" 
d="M50 212v502h88v-502q0 -80 28.5 -117t92.5 -37q68 0 96 40q26 35 26 114v502h88v-502q0 -105 -52 -164q-55 -62 -158 -62q-209 0 -209 226zM121 753l101 142h77l100 -142h-78l-61 88l-61 -88h-78z" />
    <glyph glyph-name="Udieresis" unicode="&#xdc;" horiz-adv-x="519" 
d="M50 212v502h88v-502q0 -80 28.5 -117t92.5 -37q68 0 96 40q26 35 26 114v502h88v-502q0 -105 -52 -164q-55 -62 -158 -62q-209 0 -209 226zM140 777v101h78v-101h-78zM302 777v101h78v-101h-78z" />
    <glyph glyph-name="Yacute" unicode="&#xdd;" horiz-adv-x="462" 
d="M187 280l-189 434h97l136 -334l141 334h92l-189 -434v-280h-88v280zM181 753l70 142h98l-108 -142h-60z" />
    <glyph glyph-name="Thorn" unicode="&#xde;" horiz-adv-x="481" 
d="M58 0v714h88v-140h94q86 0 134 -26q87 -47 87 -179q0 -98 -56.5 -152.5t-149.5 -54.5h-109v-162h-88zM146 502v-268h105q51 0 84.5 35.5t33.5 103.5q0 129 -124 129h-99z" />
    <glyph glyph-name="germandbls" unicode="&#xdf;" horiz-adv-x="463" 
d="M48 0v511q0 102 36 152q42 59 141 59q76 0 122 -39q50 -43 50 -124q0 -52 -26 -93q-29 -45 -80 -54v-2q68 0 107 -55q36 -52 36 -131q0 -90 -42 -152q-49 -72 -137 -72h-59v72h58q50 0 74 55q18 40 18 97q0 68 -29 109t-78 41q-25 0 -40 -3v69h20q40 0 67 27.5t27 77.5
q0 111 -88 111q-58 0 -79 -41q-14 -28 -14 -90v-525h-84z" />
    <glyph glyph-name="agrave" unicode="&#xe0;" horiz-adv-x="444" 
d="M126 374h-84q0 92 42.5 134t137.5 42q106 0 143 -56q20 -31 20 -98v-299q0 -43 26 -43q13 0 20 5v-60q-30 -5 -49 -5q-34 0 -48 9q-25 14 -28 60h-2q-20 -35 -55.5 -56t-73.5 -21q-146 0 -146 156q0 118 101 148l113 34q42 13 53 31q8 12 8 50q0 79 -86 79
q-92 0 -92 -105v-5zM301 154v138q-18 -19 -69 -35q-60 -19 -74 -28q-41 -25 -41 -85q0 -92 76 -92q42 0 75 30.5t33 71.5zM104 752h98l70 -142h-60z" />
    <glyph glyph-name="aacute" unicode="&#xe1;" horiz-adv-x="444" 
d="M126 374h-84q0 92 42.5 134t137.5 42q106 0 143 -56q20 -31 20 -98v-299q0 -43 26 -43q13 0 20 5v-60q-30 -5 -49 -5q-34 0 -48 9q-25 14 -28 60h-2q-20 -35 -55.5 -56t-73.5 -21q-146 0 -146 156q0 118 101 148l113 34q42 13 53 31q8 12 8 50q0 79 -86 79
q-92 0 -92 -105v-5zM301 154v138q-18 -19 -69 -35q-60 -19 -74 -28q-41 -25 -41 -85q0 -92 76 -92q42 0 75 30.5t33 71.5zM172 610l70 142h98l-108 -142h-60z" />
    <glyph glyph-name="acircumflex" unicode="&#xe2;" horiz-adv-x="444" 
d="M126 374h-84q0 92 42.5 134t137.5 42q106 0 143 -56q20 -31 20 -98v-299q0 -43 26 -43q13 0 20 5v-60q-30 -5 -49 -5q-34 0 -48 9q-25 14 -28 60h-2q-20 -35 -55.5 -56t-73.5 -21q-146 0 -146 156q0 118 101 148l113 34q42 13 53 31q8 12 8 50q0 79 -86 79
q-92 0 -92 -105v-5zM301 154v138q-18 -19 -69 -35q-60 -19 -74 -28q-41 -25 -41 -85q0 -92 76 -92q42 0 75 30.5t33 71.5zM83 610l101 142h77l100 -142h-78l-61 88l-61 -88h-78z" />
    <glyph glyph-name="atilde" unicode="&#xe3;" horiz-adv-x="444" 
d="M126 374h-84q0 92 42.5 134t137.5 42q106 0 143 -56q20 -31 20 -98v-299q0 -43 26 -43q13 0 20 5v-60q-30 -5 -49 -5q-34 0 -48 9q-25 14 -28 60h-2q-20 -35 -55.5 -56t-73.5 -21q-146 0 -146 156q0 118 101 148l113 34q42 13 53 31q8 12 8 50q0 79 -86 79
q-92 0 -92 -105v-5zM301 154v138q-18 -19 -69 -35q-60 -19 -74 -28q-41 -25 -41 -85q0 -92 76 -92q42 0 75 30.5t33 71.5zM315 740v0h54q0 -42 -22 -74q-24 -37 -64 -37q-24 0 -65.5 19t-49.5 19q-32 0 -39 -45h-54q0 45 27 78t66 33q20 0 59.5 -19t52.5 -19q25 0 35 45z
" />
    <glyph glyph-name="adieresis" unicode="&#xe4;" horiz-adv-x="444" 
d="M126 374h-84q0 92 42.5 134t137.5 42q106 0 143 -56q20 -31 20 -98v-299q0 -43 26 -43q13 0 20 5v-60q-30 -5 -49 -5q-34 0 -48 9q-25 14 -28 60h-2q-20 -35 -55.5 -56t-73.5 -21q-146 0 -146 156q0 118 101 148l113 34q42 13 53 31q8 12 8 50q0 79 -86 79
q-92 0 -92 -105v-5zM301 154v138q-18 -19 -69 -35q-60 -19 -74 -28q-41 -25 -41 -85q0 -92 76 -92q42 0 75 30.5t33 71.5zM102 634v101h78v-101h-78zM264 634v101h78v-101h-78z" />
    <glyph glyph-name="aring" unicode="&#xe5;" horiz-adv-x="444" 
d="M126 374h-84q0 92 42.5 134t137.5 42q106 0 143 -56q20 -31 20 -98v-299q0 -43 26 -43q13 0 20 5v-60q-30 -5 -49 -5q-34 0 -48 9q-25 14 -28 60h-2q-20 -35 -55.5 -56t-73.5 -21q-146 0 -146 156q0 118 101 148l113 34q42 13 53 31q8 12 8 50q0 79 -86 79
q-92 0 -92 -105v-5zM301 154v138q-18 -19 -69 -35q-60 -19 -74 -28q-41 -25 -41 -85q0 -92 76 -92q42 0 75 30.5t33 71.5zM123 690q0 41 29 70t70 29t70 -29t29 -70t-29 -70t-70 -29t-70 29t-29 70zM165 690q0 -23 17 -40t40 -17t40 17t17 40t-17 40t-40 17t-40 -17t-17 -40
z" />
    <glyph glyph-name="ae" unicode="&#xe6;" horiz-adv-x="667" 
d="M371 324h182v29q0 131 -89 131q-48 0 -73 -48q-20 -39 -20 -92v-20zM553 176h84q0 -62 -34 -116q-46 -74 -135 -74q-72 0 -113 42q-27 27 -31 56h-2q-45 -98 -149 -98q-67 0 -107 42t-40 114q0 117 102 148l125 38q25 8 33 31q4 13 4 46q0 79 -80 79q-86 0 -86 -105v-5
h-84q0 91 42.5 133.5t133.5 42.5q108 0 128 -74h2q13 33 51 54q35 20 75 20q103 0 142 -86q27 -58 27 -172v-34h-273q0 -92 12 -134q20 -72 82 -72q52 0 76 47q15 32 15 77zM290 174v105h-2q-4 -9 -60 -27l-70 -22q-44 -16 -44 -85q0 -40 18 -65q20 -28 57 -28q62 0 87 51
q14 30 14 71z" />
    <glyph glyph-name="ccedilla" unicode="&#xe7;" horiz-adv-x="426" 
d="M151 -81l47 67q-166 14 -166 275q0 289 191 289q96 0 140 -65q31 -46 31 -112h-84q0 45 -18 75q-23 36 -67 36q-48 0 -72 -37q-33 -52 -33 -185q0 -87 13 -131q23 -79 89 -79q88 0 88 134h84q0 -72 -33 -125q-41 -65 -121 -74l-29 -41l2 -2q14 6 30 6q30 0 53 -17
q27 -21 27 -59q0 -37 -32 -61.5t-75 -24.5q-65 0 -99 20l15 34q36 -12 64 -12q55 0 55 41q0 17 -14 27t-33 10q-29 0 -38 -7z" />
    <glyph glyph-name="egrave" unicode="&#xe8;" horiz-adv-x="444" 
d="M128 324h191v29q0 131 -93 131q-51 0 -77 -47q-21 -39 -21 -93v-20zM407 258h-282q0 -92 13 -134q22 -72 90 -72q52 0 76 47q15 32 15 77h84q0 -63 -35 -116q-49 -74 -145 -74q-97 0 -142 69q-44 66 -44 206q0 289 191 289q109 0 151 -86q28 -58 28 -172v-34zM104 752h98
l70 -142h-60z" />
    <glyph glyph-name="eacute" unicode="&#xe9;" horiz-adv-x="444" 
d="M128 324h191v29q0 131 -93 131q-51 0 -77 -47q-21 -39 -21 -93v-20zM407 258h-282q0 -92 13 -134q22 -72 90 -72q52 0 76 47q15 32 15 77h84q0 -63 -35 -116q-49 -74 -145 -74q-97 0 -142 69q-44 66 -44 206q0 289 191 289q109 0 151 -86q28 -58 28 -172v-34zM172 610
l70 142h98l-108 -142h-60z" />
    <glyph glyph-name="ecircumflex" unicode="&#xea;" horiz-adv-x="444" 
d="M128 324h191v29q0 131 -93 131q-51 0 -77 -47q-21 -39 -21 -93v-20zM407 258h-282q0 -92 13 -134q22 -72 90 -72q52 0 76 47q15 32 15 77h84q0 -63 -35 -116q-49 -74 -145 -74q-97 0 -142 69q-44 66 -44 206q0 289 191 289q109 0 151 -86q28 -58 28 -172v-34zM83 610
l101 142h77l100 -142h-78l-61 88l-61 -88h-78z" />
    <glyph glyph-name="edieresis" unicode="&#xeb;" horiz-adv-x="444" 
d="M128 324h191v29q0 131 -93 131q-51 0 -77 -47q-21 -39 -21 -93v-20zM407 258h-282q0 -92 13 -134q22 -72 90 -72q52 0 76 47q15 32 15 77h84q0 -63 -35 -116q-49 -74 -145 -74q-97 0 -142 69q-44 66 -44 206q0 289 191 289q109 0 151 -86q28 -58 28 -172v-34zM102 634
v101h78v-101h-78zM264 634v101h78v-101h-78z" />
    <glyph glyph-name="igrave" unicode="&#xec;" 
d="M60 0v536h84v-536h-84zM-16 752h98l70 -142h-60z" />
    <glyph glyph-name="iacute" unicode="&#xed;" 
d="M60 0v536h84v-536h-84zM52 610l70 142h98l-108 -142h-60z" />
    <glyph glyph-name="icircumflex" unicode="&#xee;" 
d="M60 0v536h84v-536h-84zM-37 610l101 142h77l100 -142h-78l-61 88l-61 -88h-78z" />
    <glyph glyph-name="idieresis" unicode="&#xef;" 
d="M60 0v536h84v-536h-84zM-18 634v101h78v-101h-78zM144 634v101h78v-101h-78z" />
    <glyph glyph-name="eth" unicode="&#xf0;" horiz-adv-x="444" 
d="M220 470q-103 0 -103 -202q0 -216 103 -216q107 0 107 216q0 202 -107 202zM120 595l-38 42l71 40q-30 30 -77 67l64 28q44 -35 72 -61l74 42l38 -42l-70 -40q81 -81 119 -169q42 -99 42 -234q0 -282 -193 -282t-193 282q0 268 193 268q32 0 59 -17h2q-44 67 -90 117z
" />
    <glyph glyph-name="ntilde" unicode="&#xf1;" horiz-adv-x="463" 
d="M55 0v536h80v-63h2q16 36 54 57q35 20 76 20q92 0 123 -61q18 -35 18 -109v-380h-84v370q0 108 -79 108q-40 0 -70 -25q-36 -30 -36 -83v-370h-84zM325 740v0h54q0 -42 -22 -74q-24 -37 -64 -37q-24 0 -65.5 19t-49.5 19q-32 0 -39 -45h-54q0 45 27 78t66 33
q20 0 59.5 -19t52.5 -19q25 0 35 45z" />
    <glyph glyph-name="ograve" unicode="&#xf2;" horiz-adv-x="444" 
d="M29 268q0 282 193 282t193 -282t-193 -282t-193 282zM220 52q107 0 107 216q0 101 -20 152q-25 64 -87 64q-103 0 -103 -216t103 -216zM104 752h98l70 -142h-60z" />
    <glyph glyph-name="oacute" unicode="&#xf3;" horiz-adv-x="444" 
d="M29 268q0 282 193 282t193 -282t-193 -282t-193 282zM220 52q107 0 107 216q0 101 -20 152q-25 64 -87 64q-103 0 -103 -216t103 -216zM172 610l70 142h98l-108 -142h-60z" />
    <glyph glyph-name="ocircumflex" unicode="&#xf4;" horiz-adv-x="444" 
d="M29 268q0 282 193 282t193 -282t-193 -282t-193 282zM220 52q107 0 107 216q0 101 -20 152q-25 64 -87 64q-103 0 -103 -216t103 -216zM83 610l101 142h77l100 -142h-78l-61 88l-61 -88h-78z" />
    <glyph glyph-name="otilde" unicode="&#xf5;" horiz-adv-x="444" 
d="M29 268q0 282 193 282t193 -282t-193 -282t-193 282zM220 52q107 0 107 216q0 101 -20 152q-25 64 -87 64q-103 0 -103 -216t103 -216zM315 740v0h54q0 -42 -22 -74q-24 -37 -64 -37q-24 0 -65.5 19t-49.5 19q-32 0 -39 -45h-54q0 45 27 78t66 33q20 0 59.5 -19t52.5 -19
q25 0 35 45z" />
    <glyph glyph-name="odieresis" unicode="&#xf6;" horiz-adv-x="444" 
d="M29 268q0 282 193 282t193 -282t-193 -282t-193 282zM220 52q107 0 107 216q0 101 -20 152q-25 64 -87 64q-103 0 -103 -216t103 -216zM102 634v101h78v-101h-78zM264 634v101h78v-101h-78z" />
    <glyph glyph-name="divide" unicode="&#xf7;" horiz-adv-x="600" 
d="M47 220v66h506v-66h-506zM244 464q0 23 16.5 39.5t39.5 16.5t39.5 -16.5t16.5 -39.5t-16.5 -39.5t-39.5 -16.5t-39.5 16.5t-16.5 39.5zM244 42q0 23 16.5 39.5t39.5 16.5t39.5 -16.5t16.5 -39.5t-16.5 -39.5t-39.5 -16.5t-39.5 16.5t-16.5 39.5z" />
    <glyph glyph-name="oslash" unicode="&#xf8;" horiz-adv-x="444" 
d="M310 407l-143 -336q21 -19 53 -19q107 0 107 216q0 89 -17 139zM134 126l143 337q-24 21 -57 21q-103 0 -103 -216q0 -90 17 -142zM64 -40l32 76q-67 66 -67 232q0 282 193 282q50 0 84 -18l26 61l48 -21l-30 -71q65 -71 65 -233q0 -282 -193 -282q-49 0 -84 18l-27 -63z
" />
    <glyph glyph-name="ugrave" unicode="&#xf9;" horiz-adv-x="463" 
d="M408 536v-536h-80v63h-2q-16 -36 -52.5 -56.5t-77.5 -20.5q-92 0 -123 61q-18 35 -18 109v380h84v-370q0 -108 79 -108q40 0 70 25q36 30 36 83v370h84zM114 752h98l70 -142h-60z" />
    <glyph glyph-name="uacute" unicode="&#xfa;" horiz-adv-x="463" 
d="M408 536v-536h-80v63h-2q-16 -36 -52.5 -56.5t-77.5 -20.5q-92 0 -123 61q-18 35 -18 109v380h84v-370q0 -108 79 -108q40 0 70 25q36 30 36 83v370h84zM182 610l70 142h98l-108 -142h-60z" />
    <glyph glyph-name="ucircumflex" unicode="&#xfb;" horiz-adv-x="463" 
d="M408 536v-536h-80v63h-2q-16 -36 -52.5 -56.5t-77.5 -20.5q-92 0 -123 61q-18 35 -18 109v380h84v-370q0 -108 79 -108q40 0 70 25q36 30 36 83v370h84zM93 610l101 142h77l100 -142h-78l-61 88l-61 -88h-78z" />
    <glyph glyph-name="udieresis" unicode="&#xfc;" horiz-adv-x="463" 
d="M408 536v-536h-80v63h-2q-16 -36 -52.5 -56.5t-77.5 -20.5q-92 0 -123 61q-18 35 -18 109v380h84v-370q0 -108 79 -108q40 0 70 25q36 30 36 83v370h84zM112 634v101h78v-101h-78zM274 634v101h78v-101h-78z" />
    <glyph glyph-name="yacute" unicode="&#xfd;" horiz-adv-x="406" 
d="M168 -11l-158 547h92l106 -430h2l94 430h92l-155 -572q-19 -70 -41 -98q-34 -42 -102 -42q-19 0 -61 3v66q18 -3 49 -3q48 0 66 52zM153 610l70 142h98l-108 -142h-60z" />
    <glyph glyph-name="thorn" unicode="&#xfe;" horiz-adv-x="463" 
d="M134 268q0 -210 108 -210q55 0 78 58q20 51 20 162q0 200 -98 200q-64 0 -89 -59q-19 -47 -19 -151zM55 -176v890h84v-239h2q9 33 44 55q32 20 68 20q175 0 175 -272q0 -114 -35 -192q-46 -100 -140 -100q-36 0 -67 20.5t-45 54.5h-2v-237h-84z" />
    <glyph glyph-name="ydieresis" unicode="&#xff;" horiz-adv-x="406" 
d="M168 -11l-158 547h92l106 -430h2l94 430h92l-155 -572q-19 -70 -41 -98q-34 -42 -102 -42q-19 0 -61 3v66q18 -3 49 -3q48 0 66 52zM83 634v101h78v-101h-78zM245 634v101h78v-101h-78z" />
    <glyph glyph-name="OE" unicode="&#x152;" horiz-adv-x="796" 
d="M500 334v-256h272v-78h-358v63h-2q-13 -35 -50.5 -56t-83.5 -21q-135 0 -189 113q-41 86 -41 258q0 165 41 253q55 118 189 118q42 0 80 -17q42 -19 58 -52h2v55h342v-78h-260v-224h244v-78h-244zM412 232v231q0 97 -18 134q-29 59 -116 59q-86 0 -118 -88
q-24 -65 -24 -211t24 -211q32 -88 118 -88q78 0 110 52q24 40 24 122z" />
    <glyph glyph-name="oe" unicode="&#x153;" horiz-adv-x="722" 
d="M683 292v-34h-273q0 -92 12 -134q20 -72 82 -72q52 0 76 47q15 32 15 77h84q0 -62 -34 -116q-46 -74 -135 -74q-111 0 -142 92q-40 -92 -141 -92q-188 0 -188 282t188 282q99 0 147 -91q19 42 57 66.5t83 24.5q103 0 142 -86q27 -58 27 -172zM332 268q0 216 -105 216
q-100 0 -100 -216t100 -216q105 0 105 216zM413 344v-20h182v29q0 131 -89 131q-48 0 -73 -48q-20 -39 -20 -92z" />
    <glyph glyph-name="Scaron" unicode="&#x160;" horiz-adv-x="500" 
d="M449 529h-88q0 127 -111 127q-118 0 -118 -116q0 -82 87 -120q81 -31 163 -62q87 -50 87 -160q0 -113 -73 -168q-59 -44 -149 -44q-120 0 -171 62q-45 55 -45 176h88q0 -79 19 -113q29 -53 115 -53q53 0 88.5 35t35.5 91q0 82 -87 122q-81 31 -163 63q-87 51 -87 162
q0 73 37 123q53 74 172 74q197 0 200 -199zM389 895l-101 -142h-77l-100 142h78l61 -88l61 88h78z" />
    <glyph glyph-name="scaron" unicode="&#x161;" horiz-adv-x="407" 
d="M369 379h-84q0 54 -17.5 79.5t-61.5 25.5q-87 0 -87 -82q0 -41 41 -64q13 -7 91 -33q65 -22 90 -44q41 -36 41 -107q0 -82 -47.5 -125t-125.5 -43q-184 0 -184 190h84q0 -124 100 -124q31 0 55 16q34 23 34 73q0 47 -41 73q-18 12 -90 36q-67 23 -90 43q-42 35 -42 109
q0 72 51 112q46 36 120 36q102 0 140 -62q22 -37 23 -109zM343 752l-101 -142h-77l-100 142h78l61 -88l61 88h78z" />
    <glyph glyph-name="Ydieresis" unicode="&#x178;" horiz-adv-x="462" 
d="M187 280l-189 434h97l136 -334l141 334h92l-189 -434v-280h-88v280zM111 777v101h78v-101h-78zM273 777v101h78v-101h-78z" />
    <glyph glyph-name="florin" unicode="&#x192;" horiz-adv-x="480" 
d="M-17 -172l14 66q16 -4 49 -4q35 0 52 19t27 71l79 400h-104l11 60h104l33 156q25 118 166 118q22 0 48 -4l-14 -66q-14 4 -35 4q-51 0 -71 -34q-14 -22 -28 -96l-15 -78h109l-11 -60h-109l-80 -411q-28 -145 -168 -145q-33 0 -57 4z" />
    <glyph glyph-name="circumflex" unicode="&#x2c6;" 
d="M-37 610l101 142h77l100 -142h-78l-61 88l-61 -88h-78z" />
    <glyph glyph-name="tilde" unicode="&#x2dc;" 
d="M195 740v0h54q0 -42 -22 -74q-24 -37 -64 -37q-24 0 -65.5 19t-49.5 19q-32 0 -39 -45h-54q0 45 27 78t66 33q20 0 59.5 -19t52.5 -19q25 0 35 45z" />
    <glyph glyph-name="endash" unicode="&#x2013;" horiz-adv-x="500" 
d="M0 248v72h500v-72h-500z" />
    <glyph glyph-name="emdash" unicode="&#x2014;" horiz-adv-x="1000" 
d="M0 248v72h1000v-72h-1000z" />
    <glyph glyph-name="quoteleft" unicode="&#x2018;" horiz-adv-x="240" 
d="M166 566v-106h-92v87q0 70 14 103q20 48 78 64v-47q-44 -21 -44 -77v-24h44z" />
    <glyph glyph-name="quoteright" unicode="&#x2019;" horiz-adv-x="240" 
d="M74 608v106h92v-87q0 -70 -14 -103q-20 -48 -78 -64v47q44 21 44 77v24h-44z" />
    <glyph glyph-name="quotesinglbase" unicode="&#x201a;" horiz-adv-x="240" 
d="M74 0v106h92v-87q0 -70 -14 -103q-20 -48 -78 -64v47q44 21 44 77v24h-44z" />
    <glyph glyph-name="quotedblleft" unicode="&#x201c;" horiz-adv-x="407" 
d="M328 566v-106h-92v87q0 70 14 103q20 48 78 64v-47q-44 -21 -44 -77v-24h44zM171 566v-106h-92v87q0 70 14 103q20 48 78 64v-47q-44 -21 -44 -77v-24h44z" />
    <glyph glyph-name="quotedblright" unicode="&#x201d;" horiz-adv-x="407" 
d="M328 714v-87q0 -70 -14 -103q-20 -48 -78 -64v47q44 21 44 77v24h-44v106h92zM171 714v-87q0 -70 -14 -103q-20 -48 -78 -64v47q44 21 44 77v24h-44v106h92z" />
    <glyph glyph-name="quotedblbase" unicode="&#x201e;" horiz-adv-x="407" 
d="M328 106v-87q0 -70 -14 -103q-20 -48 -78 -64v47q44 21 44 77v24h-44v106h92zM171 106v-87q0 -70 -14 -103q-20 -48 -78 -64v47q44 21 44 77v24h-44v106h92z" />
    <glyph glyph-name="dagger" unicode="&#x2020;" horiz-adv-x="482" 
d="M199 508v206h84v-206h172v-72h-172v-576h-84v576h-172v72h172z" />
    <glyph glyph-name="daggerdbl" unicode="&#x2021;" horiz-adv-x="482" 
d="M199 521v193h84v-193h172v-72h-172v-317h172v-72h-172v-200h-84v200h-172v72h172v317h-172v72h172z" />
    <glyph glyph-name="bullet" unicode="&#x2022;" horiz-adv-x="500" 
d="M72 357q0 74 52.5 126t125.5 52q74 0 126 -52t52 -126q0 -73 -52 -125.5t-126 -52.5q-73 0 -125.5 52.5t-52.5 125.5z" />
    <glyph glyph-name="ellipsis" unicode="&#x2026;" horiz-adv-x="1000" 
d="M121 0v106h92v-106h-92zM454 0v106h92v-106h-92zM787 0v106h92v-106h-92z" />
    <glyph glyph-name="perthousand" unicode="&#x2030;" horiz-adv-x="1037" 
d="M860 40q38 0 51 38q8 27 8 100t-8 100q-13 38 -51 38t-50 -38q-9 -27 -9 -100t9 -100q12 -38 50 -38zM169 -14l310 722h70l-310 -722h-70zM177 378q38 0 51 38q8 27 8 100t-8 100q-13 38 -51 38t-50 -38q-9 -27 -9 -100t9 -100q12 -38 50 -38zM860 -14q-81 0 -110 59
q-21 41 -21 133t21 134q29 58 110 58t110 -58q21 -42 21 -134t-21 -133q-29 -59 -110 -59zM177 324q-81 0 -110 59q-21 41 -21 133t21 134q29 58 110 58t110 -58q21 -42 21 -134t-21 -133q-29 -59 -110 -59zM551 40q38 0 51 38q8 27 8 100t-8 100q-13 38 -51 38t-50 -38
q-9 -27 -9 -100t9 -100q12 -38 50 -38zM551 -14q-81 0 -110 59q-21 41 -21 133t21 134q29 58 110 58t110 -58q21 -42 21 -134t-21 -133q-29 -59 -110 -59z" />
    <glyph glyph-name="guilsinglleft" unicode="&#x2039;" horiz-adv-x="240" 
d="M49 245v78l142 143v-88l-94 -94l94 -94v-88z" />
    <glyph glyph-name="guilsinglright" unicode="&#x203a;" horiz-adv-x="240" 
d="M191 323v-78l-142 -143v88l94 94l-94 94v88z" />
    <glyph glyph-name="trademark" unicode="&#x2122;" horiz-adv-x="990" 
d="M185 302v352h-133v60h329v-60h-130v-352h-66zM848 302v340h-2l-139 -340h-39l-139 340h-2v-340h-66v412h98l130 -316l127 316h98v-412h-66z" />
    <glyph glyph-name="FL1" unicode="&#xe000;" horiz-adv-x="0" 
 />
    <glyph glyph-name="FL2" unicode="&#xe001;" horiz-adv-x="240" 
 />
    <glyph glyph-name="FL4" unicode="&#xe002;" horiz-adv-x="240" 
 />
    <glyph glyph-name="fraction" unicode="&#xe003;" horiz-adv-x="167" 
d="M-164 -31l435 756h60l-435 -756h-60z" />
    <glyph glyph-name="fi" unicode="&#xe004;" horiz-adv-x="463" 
d="M80 0v470h-78v66h78v63q0 123 116 123h61v-72h-39q-54 0 -54 -51v-63h92v-66h-92v-470h-84zM319 0v536h84v-536h-84zM319 618v96h84v-96h-84z" />
    <glyph glyph-name="fl" unicode="&#xe005;" horiz-adv-x="463" 
d="M80 0v470h-78v66h78v63q0 123 116 123h61v-72h-39q-54 0 -54 -51v-63h92v-66h-92v-470h-84zM319 0v714h84v-714h-84z" />
    <glyph glyph-name="Lslash" unicode="&#xe006;" horiz-adv-x="444" 
d="M-8 197v72l66 47v398h88v-335l194 139v-72l-194 -139v-229h290v-78h-378v244z" />
    <glyph glyph-name="lslash" unicode="&#xe007;" 
d="M60 0v276l-60 -64v78l60 64v360h84v-271l60 63v-78l-60 -63v-365h-84z" />
    <glyph glyph-name="zcaron" unicode="&#xe008;" horiz-adv-x="389" 
d="M39 464v72h323v-70l-240 -394h238v-72h-333v66l243 398h-231zM334 752l-101 -142h-77l-100 142h78l61 -88l61 88h78z" />
    <glyph glyph-name="Zcaron" unicode="&#xe009;" horiz-adv-x="463" 
d="M23 0v74l321 562h-303v78h395v-81l-321 -555h325v-78h-417zM371 895l-101 -142h-77l-100 142h78l61 -88l61 88h78z" />
    <glyph glyph-name="hyphen" horiz-adv-x="352" 
d="M54 245v78h244v-78h-244z" />
    </font>
</defs>
</svg>
